Monda-Bold-condensed.ufo
<glyph name="one" format="1">
  <advance width="559"/>
  <unicode hex="0031"/>
  <outline>
    <contour>
      <point x="186" y="0" type="line"/>
      <point x="471" y="0" type="line"/>
      <point x="471" y="1490" type="line"/>
      <point x="251" y="1490" type="line"/>
      <point x="199" y="1384"/>
      <point x="125" y="1379"/>
      <point x="36" y="1326" type="curve"/>
      <point x="36" y="1106" type="line"/>
      <point x="186" y="1106" type="line"/>
    </contour>
  </outline>
</glyph>
<glyph name="four" format="1">
  <advance width="1086"/>
  <unicode hex="0034"/>
  <outline>
    <contour>
      <point x="51" y="362" type="line"/>
      <point x="639" y="362" type="line"/>
      <point x="639" y="0" type="line"/>
      <point x="925" y="0" type="line"/>
      <point x="925" y="362" type="line"/>
      <point x="1064" y="362" type="line"/>
      <point x="1064" y="593" type="line"/>
      <point x="925" y="593" type="line"/>
      <point x="925" y="1490" type="line"/>
      <point x="544" y="1490" type="line"/>
      <point x="51" y="595" type="line"/>
    </contour>
    <contour>
      <point x="347" y="593" type="line"/>
      <point x="639" y="1040" type="line"/>
      <point x="639" y="593" type="line"/>
    </contour>
  </outline>
</glyph>
<glyph name="seven" format="1">
  <advance width="871"/>
  <unicode hex="0037"/>
  <outline>
    <contour>
      <point x="128" y="0" type="line"/>
      <point x="409" y="0" type="line"/>
      <point x="853" y="1342" type="line"/>
      <point x="853" y="1489" type="line"/>
      <point x="24" y="1489" type="line"/>
      <point x="24" y="1238" type="line"/>
      <point x="514" y="1238" type="line"/>
    </contour>
  </outline>
</glyph>
<glyph name="semicolon" format="1">
  <advance width="422"/>
  <unicode hex="003B"/>
  <outline>
    <contour>
      <point x="127" y="-79" type="line"/>
      <point x="361" y="-114"/>
      <point x="338" y="103"/>
      <point x="338" y="386" type="curve"/>
      <point x="70" y="386" type="line"/>
      <point x="70" y="122" type="line"/>
      <point x="161" y="122" type="line"/>
      <point x="160" y="52"/>
      <point x="154" y="59"/>
      <point x="94" y="59" type="curve"/>
    </contour>
    <contour>
      <point x="72" y="742" type="line"/>
      <point x="338" y="742" type="line"/>
      <point x="338" y="1004" type="line"/>
      <point x="72" y="1004" type="line"/>
    </contour>
  </outline>
</glyph>
<glyph name="A" format="1">
  <advance width="1456"/>
  <unicode hex="0041"/>
  <outline>
    <contour>
      <point x="1030" y="0" type="line"/>
      <point x="1387" y="0" type="line"/>
      <point x="962" y="1490" type="line"/>
      <point x="472" y="1490" type="line"/>
      <point x="69" y="0" type="line"/>
      <point x="416" y="0" type="line"/>
      <point x="724" y="1185" type="line"/>
    </contour>
    <contour>
      <point x="450" y="503" type="line"/>
      <point x="450" y="280" type="line"/>
      <point x="998" y="280" type="line"/>
      <point x="998" y="503" type="line"/>
    </contour>
  </outline>
</glyph>
<glyph name="K" format="1">
  <advance width="1318"/>
  <unicode hex="004B"/>
  <outline>
    <contour>
      <point x="162" y="0" type="line"/>
      <point x="501" y="0" type="line"/>
      <point x="501" y="580" type="line"/>
      <point x="561" y="681" type="line"/>
      <point x="907" y="0" type="line"/>
      <point x="1298" y="0" type="line"/>
      <point x="852" y="790" type="line"/>
      <point x="1257" y="1490" type="line"/>
      <point x="883" y="1490" type="line"/>
      <point x="501" y="844" type="line"/>
      <point x="501" y="1490" type="line"/>
      <point x="162" y="1490" type="line"/>
    </contour>
  </outline>
</glyph>
<glyph name="exclamdown" format="1">
  <advance width="433"/>
  <unicode hex="00A1"/>
  <outline>
    <contour>
      <point x="79" y="-410" type="line"/>
      <point x="362" y="-410" type="line"/>
      <point x="276" y="697" type="line"/>
      <point x="180" y="697" type="line"/>
    </contour>
    <contour>
      <point x="95" y="817" type="line"/>
      <point x="362" y="817" type="line"/>
      <point x="362" y="1080" type="line"/>
      <point x="95" y="1080" type="line"/>
    </contour>
  </outline>
</glyph>
<glyph name="sterling" format="1">
  <advance width="1088"/>
  <unicode hex="00A3"/>
  <outline>
    <contour>
      <point x="70" y="0" type="line"/>
      <point x="999" y="0" type="line"/>
      <point x="999" y="235" type="line"/>
      <point x="472" y="235" type="line"/>
      <point x="472" y="600" type="line"/>
      <point x="822" y="600" type="line"/>
      <point x="822" y="814" type="line"/>
      <point x="472" y="814" type="line"/>
      <point x="472" y="996" type="line" smooth="yes"/>
      <point x="472" y="1124"/>
      <point x="483" y="1284"/>
      <point x="577" y="1284" type="curve" smooth="yes"/>
      <point x="683" y="1284"/>
      <point x="683" y="1143"/>
      <point x="683" y="1080" type="curve"/>
      <point x="1008" y="1080" type="line"/>
      <point x="1008" y="1293"/>
      <point x="980" y="1518"/>
      <point x="577" y="1518" type="curve" smooth="yes"/>
      <point x="210" y="1518"/>
      <point x="170" y="1241"/>
      <point x="170" y="998" type="curve" smooth="yes"/>
      <point x="170" y="814" type="line"/>
      <point x="70" y="814" type="line"/>
      <point x="70" y="600" type="line"/>
      <point x="170" y="600" type="line"/>
      <point x="170" y="203" type="line"/>
      <point x="70" y="154" type="line"/>
    </contour>
  </outline>
</glyph>
<glyph name="macron" format="1">
  <advance width="354"/>
  <unicode hex="00AF"/>
  <outline>
    <contour>
      <point x="-30" y="1206" type="line"/>
      <point x="390" y="1206" type="line"/>
      <point x="390" y="1365" type="line"/>
      <point x="-30" y="1365" type="line"/>
    </contour>
  </outline>
</glyph>
<glyph name="ae" format="1">
  <advance width="1411"/>
  <unicode hex="00E6"/>
  <outline>
    <contour>
      <point x="354" y="719" type="line"/>
      <point x="354" y="737"/>
      <point x="349" y="761"/>
      <point x="349" y="786" type="curve" smooth="yes"/>
      <point x="349" y="835"/>
      <point x="365" y="885"/>
      <point x="456" y="885" type="curve" smooth="yes"/>
      <point x="575" y="885"/>
      <point x="586" y="793"/>
      <point x="586" y="729" type="curve" smooth="yes"/>
      <point x="586" y="617" type="line"/>
      <point x="227" y="561"/>
      <point x="52" y="507"/>
      <point x="52" y="241" type="curve" smooth="yes"/>
      <point x="52" y="63"/>
      <point x="182" y="-24"/>
      <point x="340" y="-24" type="curve" smooth="yes"/>
      <point x="505" y="-24"/>
      <point x="673" y="27"/>
      <point x="724" y="120" type="curve"/>
      <point x="750" y="34"/>
      <point x="863" y="-24"/>
      <point x="1022" y="-24" type="curve" smooth="yes"/>
      <point x="1225" y="-14"/>
      <point x="1356" y="96"/>
      <point x="1356" y="281" type="curve" smooth="yes"/>
      <point x="1356" y="402" type="line"/>
      <point x="1077" y="402" type="line"/>
      <point x="1077" y="384"/>
      <point x="1082" y="352"/>
      <point x="1082" y="318" type="curve" smooth="yes"/>
      <point x="1082" y="259"/>
      <point x="1066" y="195"/>
      <point x="977" y="195" type="curve" smooth="yes"/>
      <point x="889" y="195"/>
      <point x="882" y="250"/>
      <point x="882" y="286" type="curve" smooth="yes"/>
      <point x="882" y="542" type="line"/>
      <point x="1082" y="561"/>
      <point x="1363" y="595"/>
      <point x="1363" y="826" type="curve" smooth="yes"/>
      <point x="1363" y="951"/>
      <point x="1230" y="1105"/>
      <point x="1007" y="1105" type="curve" smooth="yes"/>
      <point x="869" y="1105"/>
      <point x="785" y="1070"/>
      <point x="736" y="1020" type="curve"/>
      <point x="697" y="1068"/>
      <point x="628" y="1103"/>
      <point x="523" y="1105" type="curve" smooth="yes"/>
      <point x="510" y="1105"/>
      <point x="495" y="1106"/>
      <point x="482" y="1106" type="curve" smooth="yes"/>
      <point x="186" y="1106"/>
      <point x="60" y="957"/>
      <point x="60" y="719" type="curve"/>
    </contour>
    <contour>
      <point x="623" y="348" type="curve" smooth="yes"/>
      <point x="623" y="266"/>
      <point x="571" y="186"/>
      <point x="441" y="186" type="curve" smooth="yes"/>
      <point x="344" y="186"/>
      <point x="303" y="245"/>
      <point x="303" y="293" type="curve" smooth="yes"/>
      <point x="303" y="359"/>
      <point x="334" y="431"/>
      <point x="614" y="485" type="curve"/>
      <point x="614" y="485"/>
      <point x="623" y="363"/>
    </contour>
    <contour>
      <point x="882" y="798" type="line" smooth="yes"/>
      <point x="882" y="833"/>
      <point x="928" y="892"/>
      <point x="1007" y="892" type="curve" smooth="yes"/>
      <point x="1108" y="892"/>
      <point x="1135" y="847"/>
      <point x="1135" y="801" type="curve" smooth="yes"/>
      <point x="1135" y="698"/>
      <point x="882" y="665"/>
      <point x="882" y="665" type="curve"/>
    </contour>
  </outline>
</glyph>
<glyph name="ucircumflex" format="1">
  <advance width="992"/>
  <unicode hex="00FB"/>
  <outline>
    <contour>
      <point x="975" y="1080" type="line"/>
      <point x="664" y="1080" type="line"/>
      <point x="664" y="266" type="line" smooth="yes"/>
      <point x="664" y="229"/>
      <point x="595" y="186"/>
      <point x="534" y="186" type="curve" smooth="yes"/>
      <point x="485" y="186"/>
      <point x="441" y="213"/>
      <point x="441" y="290" type="curve" smooth="yes"/>
      <point x="441" y="1080" type="line"/>
      <point x="131" y="1080" type="line"/>
      <point x="131" y="226" type="line" smooth="yes"/>
      <point x="131" y="89"/>
      <point x="225" y="-24"/>
      <point x="386" y="-24" type="curve" smooth="yes"/>
      <point x="532" y="-24"/>
      <point x="606" y="30"/>
      <point x="664" y="76" type="curve"/>
      <point x="664" y="0" type="line"/>
      <point x="975" y="0" type="line"/>
    </contour>
    <contour>
      <point x="125" y="1189" type="line"/>
      <point x="370" y="1189" type="line"/>
      <point x="479" y="1356" type="line"/>
      <point x="590" y="1189" type="line"/>
      <point x="837" y="1189" type="line"/>
      <point x="667" y="1525" type="line"/>
      <point x="291" y="1525" type="line"/>
    </contour>
  </outline>
</glyph>
<glyph name="Hcircumflex" format="1">
  <advance width="1225"/>
  <unicode hex="0124"/>
  <outline>
    <contour>
      <point x="137" y="0" type="line"/>
      <point x="405" y="0" type="line"/>
      <point x="405" y="663" type="line"/>
      <point x="822" y="663" type="line"/>
      <point x="822" y="0" type="line"/>
      <point x="1091" y="0" type="line"/>
      <point x="1091" y="1487" type="line"/>
      <point x="822" y="1487" type="line"/>
      <point x="822" y="874" type="line"/>
      <point x="405" y="874" type="line"/>
      <point x="405" y="1487" type="line"/>
      <point x="137" y="1487" type="line"/>
    </contour>
    <contour>
      <point x="233" y="1538" type="line"/>
      <point x="504" y="1538" type="line"/>
      <point x="613" y="1680" type="line"/>
      <point x="722" y="1538" type="line"/>
      <point x="996" y="1538" type="line"/>
      <point x="826" y="1903" type="line"/>
      <point x="401" y="1903" type="line"/>
    </contour>
  </outline>
</glyph>
<glyph name="hbar" format="1">
  <advance width="912"/>
  <unicode hex="0127"/>
  <outline>
    <contour>
      <point x="82" y="0" type="line"/>
      <point x="361" y="0" type="line"/>
      <point x="361" y="832" type="line"/>
      <point x="392" y="853"/>
      <point x="452" y="894"/>
      <point x="516" y="894" type="curve" smooth="yes"/>
      <point x="593" y="894"/>
      <point x="584" y="828"/>
      <point x="584" y="797" type="curve" smooth="yes"/>
      <point x="584" y="0" type="line"/>
      <point x="863" y="0" type="line"/>
      <point x="863" y="870" type="line" smooth="yes"/>
      <point x="863" y="978"/>
      <point x="792" y="1105"/>
      <point x="672" y="1105" type="curve" smooth="yes"/>
      <point x="589" y="1105"/>
      <point x="453" y="1061"/>
      <point x="361" y="1003" type="curve"/>
      <point x="361" y="1208" type="line"/>
      <point x="693" y="1208" type="line"/>
      <point x="693" y="1360" type="line"/>
      <point x="361" y="1360" type="line"/>
      <point x="361" y="1490" type="line"/>
      <point x="82" y="1490" type="line"/>
      <point x="82" y="1360" type="line"/>
      <point x="0" y="1360" type="line"/>
      <point x="0" y="1208" type="line"/>
      <point x="82" y="1208" type="line"/>
    </contour>
  </outline>
</glyph>
<glyph name="Jcircumflex" format="1">
  <advance width="571"/>
  <unicode hex="0134"/>
  <outline>
    <contour>
      <point x="0" y="-28" type="line"/>
      <point x="148" y="-28" type="line" smooth="yes"/>
      <point x="429" y="-28"/>
      <point x="483" y="100"/>
      <point x="483" y="357" type="curve" smooth="yes"/>
      <point x="483" y="1490" type="line"/>
      <point x="182" y="1490" type="line"/>
      <point x="182" y="360" type="line" smooth="yes"/>
      <point x="182" y="212"/>
      <point x="144" y="182"/>
      <point x="0" y="184" type="curve"/>
    </contour>
    <contour>
      <point x="-70" y="1563" type="line"/>
      <point x="175" y="1563" type="line"/>
      <point x="284" y="1730" type="line"/>
      <point x="395" y="1563" type="line"/>
      <point x="642" y="1563" type="line"/>
      <point x="472" y="1899" type="line"/>
      <point x="96" y="1899" type="line"/>
    </contour>
  </outline>
</glyph>
<glyph name="Lacute" format="1">
  <advance width="767"/>
  <unicode hex="0139"/>
  <outline>
    <contour>
      <point x="89" y="0" type="line"/>
      <point x="760" y="0" type="line"/>
      <point x="760" y="207" type="line"/>
      <point x="390" y="207" type="line"/>
      <point x="390" y="1490" type="line"/>
      <point x="89" y="1490" type="line"/>
    </contour>
    <contour>
      <point x="185" y="1563" type="line"/>
      <point x="353" y="1563" type="line"/>
      <point x="583" y="1928" type="line"/>
      <point x="297" y="1928" type="line"/>
    </contour>
  </outline>
</glyph>
<glyph name="Rcaron" format="1">
  <advance width="1156"/>
  <unicode hex="0158"/>
  <outline>
    <contour>
      <point x="89" y="0" type="line"/>
      <point x="390" y="0" type="line"/>
      <point x="390" y="686" type="line"/>
      <point x="479" y="686" type="line"/>
      <point x="786" y="0" type="line"/>
      <point x="1098" y="0" type="line"/>
      <point x="1014" y="247"/>
      <point x="939" y="483"/>
      <point x="927" y="720" type="curve"/>
      <point x="1131" y="799"/>
      <point x="1150" y="966"/>
      <point x="1150" y="1097" type="curve" smooth="yes"/>
      <point x="1150" y="1387"/>
      <point x="955" y="1490"/>
      <point x="437" y="1490" type="curve" smooth="yes"/>
      <point x="89" y="1490" type="line"/>
    </contour>
    <contour>
      <point x="389" y="1556" type="line"/>
      <point x="765" y="1556" type="line"/>
      <point x="935" y="1892" type="line"/>
      <point x="688" y="1892" type="line"/>
      <point x="576" y="1726" type="line"/>
      <point x="468" y="1892" type="line"/>
      <point x="222" y="1892" type="line"/>
    </contour>
    <contour>
      <point x="390" y="870" type="line"/>
      <point x="390" y="1269" type="line"/>
      <point x="570" y="1269" type="line" smooth="yes"/>
      <point x="732" y="1269"/>
      <point x="753" y="1128"/>
      <point x="753" y="1073" type="curve" smooth="yes"/>
      <point x="753" y="1018"/>
      <point x="725" y="870"/>
      <point x="545" y="870" type="curve" smooth="yes"/>
    </contour>
  </outline>
</glyph>
<glyph name="uni01CC" format="1">
  <advance width="1463"/>
  <unicode hex="01CC"/>
  <outline>
    <contour>
      <point x="604" y="0" type="line"/>
      <point x="914" y="0" type="line"/>
      <point x="914" y="814" type="line" smooth="yes"/>
      <point x="914" y="851"/>
      <point x="984" y="894"/>
      <point x="1045" y="894" type="curve" smooth="yes"/>
      <point x="1094" y="894"/>
      <point x="1137" y="867"/>
      <point x="1137" y="790" type="curve" smooth="yes"/>
      <point x="1137" y="0" type="line"/>
      <point x="1448" y="0" type="line"/>
      <point x="1448" y="854" type="line" smooth="yes"/>
      <point x="1448" y="991"/>
      <point x="1353" y="1104"/>
      <point x="1192" y="1104" type="curve" smooth="yes"/>
      <point x="1046" y="1104"/>
      <point x="972" y="1050"/>
      <point x="914" y="1004" type="curve"/>
      <point x="914" y="1080" type="line"/>
      <point x="604" y="1080" type="line"/>
    </contour>
    <contour>
      <point x="-17" y="-235" type="line"/>
      <point x="31" y="-247"/>
      <point x="81" y="-257"/>
      <point x="131" y="-257" type="curve" smooth="yes"/>
      <point x="306" y="-257"/>
      <point x="396" y="-148"/>
      <point x="396" y="22" type="curve" smooth="yes"/>
      <point x="396" y="1080" type="line"/>
      <point x="118" y="1080" type="line"/>
      <point x="118" y="46" type="line" smooth="yes"/>
      <point x="118" y="3"/>
      <point x="106" y="-46"/>
      <point x="55" y="-46" type="curve" smooth="yes"/>
      <point x="31" y="-46"/>
      <point x="6" y="-40"/>
      <point x="-17" y="-33" type="curve"/>
    </contour>
    <contour>
      <point x="118" y="1174" type="line"/>
      <point x="396" y="1174" type="line"/>
      <point x="396" y="1435" type="line"/>
      <point x="118" y="1435" type="line"/>
    </contour>
  </outline>
</glyph>
<glyph name="ring" format="1">
  <advance width="626"/>
  <unicode hex="02DA"/>
  <outline>
    <contour>
      <point x="308" y="1290" type="curve" smooth="yes"/>
      <point x="258" y="1290"/>
      <point x="241" y="1348"/>
      <point x="241" y="1389" type="curve" smooth="yes"/>
      <point x="241" y="1429"/>
      <point x="259" y="1485"/>
      <point x="308" y="1485" type="curve" smooth="yes"/>
      <point x="356" y="1485"/>
      <point x="372" y="1425"/>
      <point x="372" y="1387" type="curve" smooth="yes"/>
      <point x="372" y="1348"/>
      <point x="356" y="1290"/>
    </contour>
    <contour>
      <point x="308" y="1190" type="curve" smooth="yes"/>
      <point x="427" y="1190"/>
      <point x="517" y="1265"/>
      <point x="517" y="1388" type="curve" smooth="yes"/>
      <point x="517" y="1510"/>
      <point x="426" y="1585"/>
      <point x="308" y="1585" type="curve" smooth="yes"/>
      <point x="189" y="1585"/>
      <point x="98" y="1511"/>
      <point x="98" y="1388" type="curve" smooth="yes"/>
      <point x="98" y="1265"/>
      <point x="189" y="1190"/>
    </contour>
  </outline>
</glyph>
<glyph name="Wgrave" format="1">
  <advance width="1409"/>
  <unicode hex="1E80"/>
  <outline>
    <contour>
      <point x="223" y="0" type="line"/>
      <point x="481" y="0" type="line"/>
      <point x="701" y="975" type="line"/>
      <point x="926" y="0" type="line"/>
      <point x="1183" y="0" type="line"/>
      <point x="1392" y="1490" type="line"/>
      <point x="1135" y="1490" type="line"/>
      <point x="1038" y="509" type="line"/>
      <point x="902" y="1490" type="line"/>
      <point x="505" y="1490" type="line"/>
      <point x="367" y="503" type="line"/>
      <point x="274" y="1490" type="line"/>
      <point x="17" y="1490" type="line"/>
    </contour>
    <contour>
      <point x="735" y="1563" type="line"/>
      <point x="905" y="1563" type="line"/>
      <point x="792" y="1928" type="line"/>
      <point x="506" y="1928" type="line"/>
    </contour>
  </outline>
</glyph>
<glyph name="product" format="1">
  <advance width="1327"/>
  <unicode hex="220F"/>
  <outline>
    <contour>
      <point x="118" y="0" type="line"/>
      <point x="330" y="0" type="line"/>
      <point x="330" y="1324" type="line"/>
      <point x="997" y="1324" type="line"/>
      <point x="997" y="0" type="line"/>
      <point x="1209" y="0" type="line"/>
      <point x="1209" y="1483" type="line"/>
      <point x="118" y="1483" type="line"/>
    </contour>
  </outline>
</glyph>
